<!-- icon666.com - MILLIONS vector ICONS FREE --><svg version="1.1" id="Capa_1" xmlns="http://www.w3.org/2000/svg" xmlns:xlink="http://www.w3.org/1999/xlink" x="0px" y="0px" viewBox="0 0 512 512" style="enable-background:new 0 0 512 512;" xml:space="preserve"><g><g><path d="M215.725,0c-55.684,0-100.996,48.072-100.996,107.167c0,59.085,45.312,107.167,100.996,107.167 S316.71,166.252,316.71,107.167C316.71,48.072,271.409,0,215.725,0z M215.725,184.327c-39.14,0-70.988-34.619-70.988-77.16 c0-42.541,31.848-77.16,70.988-77.16s70.978,34.619,70.978,77.16C286.703,149.708,254.865,184.327,215.725,184.327z"></path></g></g><g><g><path d="M384.998,318.951c-4.571,0-9.062,0.32-13.463,0.94c-32.998-51.193-90.513-85.152-155.81-85.152 c-102.146,0-185.247,83.101-185.247,185.247v29.497h264.187C308.448,485.983,343.737,512,384.998,512 c53.224,0,96.525-43.301,96.525-96.524S438.221,318.951,384.998,318.951z M288.473,415.476c0,1.34,0.03,2.671,0.09,4.001H60.485 c0.28-85.362,69.808-154.729,155.239-154.729c51.753,0,97.675,25.466,125.892,64.516 C310.119,345.178,288.473,377.846,288.473,415.476z M384.998,481.992c-24.266,0-45.531-13.053-57.144-32.508 c-5.311-8.882-8.602-19.095-9.252-30.008c-0.08-1.32-0.12-2.661-0.12-4.001c0-26.597,15.694-49.603,38.31-60.235 c8.562-4.031,18.125-6.282,28.207-6.282c0.61,0,1.21,0.01,1.81,0.02c35.849,0.97,64.706,30.428,64.706,66.497 C451.515,452.155,421.677,481.992,384.998,481.992z"></path></g></g><g><g><polygon points="400.002,400.472 400.002,370.464 394.23,370.464 369.994,370.464 369.994,400.472 369.724,400.472 339.986,400.472 339.986,430.479 369.994,430.479 369.994,460.487 400.002,460.487 400.002,430.479 430.009,430.479 430.009,400.472 "></polygon></g></g></svg>