<?xml version="1.0" standalone="no"?>
<!DOCTYPE svg PUBLIC "-//W3C//DTD SVG 20010904//EN"
 "http://www.w3.org/TR/2001/REC-SVG-20010904/DTD/svg10.dtd">
<svg version="1.0" xmlns="http://www.w3.org/2000/svg"
 width="300.000000pt" height="303.000000pt" viewBox="0 0 300.000000 303.000000"
 preserveAspectRatio="xMidYMid meet">
<metadata>
Created by potrace 1.10, written by Peter Selinger 2001-2011
</metadata>
<g transform="translate(0.000000,303.000000) scale(0.100000,-0.100000)"
fill="#007934" stroke="none">
<path d="M238 2926 c-17 -12 -18 -92 -18 -1416 0 -1324 1 -1404 18 -1416 25
-20 2499 -20 2525 0 16 12 17 49 17 513 0 398 -3 503 -13 511 -7 6 -49 12 -92
14 l-80 3 -5 820 c-5 745 -7 823 -22 850 -25 45 -64 82 -111 108 l-42 22
-1080 2 c-890 2 -1083 0 -1097 -11z m1948 -119 c23 -27 24 -34 24 -171 0 -182
-7 -174 160 -178 l125 -3 0 -660 0 -660 -366 -3 c-290 -2 -369 -5 -378 -16 -7
-9 -12 -156 -13 -472 l-3 -459 -710 0 -710 0 -3 1315 c-1 723 0 1321 3 1328 4
10 190 12 926 10 l921 -3 24 -28z m252 3 c43 -32 54 -64 60 -162 l4 -88 -95 0
-96 0 -4 118 c-2 64 -7 128 -12 141 -8 24 -8 24 52 19 41 -4 71 -13 91 -28z
m-380 -1779 c8 -5 12 -23 10 -47 l-3 -39 -115 0 c-113 0 -115 0 -118 24 -2 12
-1 34 2 47 6 23 9 24 109 24 56 0 108 -4 115 -9z m290 -209 l2 -213 -45 26
-45 27 -45 -26 -45 -27 0 209 c0 115 3 212 7 216 4 4 43 5 88 4 l80 -3 3 -213z
m338 194 c3 -13 4 -35 2 -47 -3 -24 -5 -24 -118 -24 l-115 0 -3 33 c-5 55 8
62 124 62 101 0 104 -1 110 -24z m-616 -348 c0 -145 3 -174 17 -190 22 -25 27
-24 99 22 35 22 68 40 74 40 6 0 39 -18 74 -40 72 -46 73 -46 98 -23 16 14 18
34 18 190 l0 174 118 -3 117 -3 0 -325 0 -325 -425 0 -425 0 -3 315 c-1 173 0
320 3 327 3 10 36 13 120 13 l115 0 0 -172z"/>
<path d="M422 2638 c-13 -13 -15 -37 -6 -62 5 -14 39 -16 275 -16 255 0 269 1
279 19 14 27 13 37 -6 55 -13 14 -52 16 -273 16 -186 0 -260 -3 -269 -12z"/>
<path d="M422 2448 c-17 -17 -15 -54 4 -72 13 -14 64 -16 407 -16 310 1 396 3
410 14 20 15 23 56 5 74 -17 17 -809 17 -826 0z"/>
<path d="M520 2160 c-19 -19 -20 -33 -20 -224 0 -173 2 -207 16 -220 23 -24
425 -24 448 0 14 13 16 47 16 220 0 191 -1 205 -20 224 -19 19 -33 20 -220 20
-187 0 -201 -1 -220 -20z m280 -87 c0 -10 -183 -193 -192 -193 -10 0 -11 184
-1 193 9 9 193 9 193 0z m80 -178 l0 -95 -102 0 -103 0 95 95 c52 52 98 95
102 95 5 0 8 -43 8 -95z"/>
<path d="M1092 2164 c-27 -18 -28 -45 -4 -67 17 -15 73 -17 604 -17 554 0 586
1 601 18 23 25 21 48 -5 66 -20 14 -93 16 -598 16 -505 0 -578 -2 -598 -16z"/>
<path d="M1082 1968 c-16 -16 -15 -39 2 -60 12 -17 53 -18 603 -18 559 0 591
1 606 18 20 22 22 43 5 60 -17 17 -1199 17 -1216 0z"/>
<path d="M1092 1784 c-27 -18 -28 -45 -4 -67 17 -15 57 -17 368 -17 259 0 353
3 362 12 18 18 15 53 -6 71 -17 15 -56 17 -358 17 -291 0 -343 -2 -362 -16z"/>
<path d="M516 1494 c-14 -13 -16 -47 -16 -215 0 -119 4 -208 10 -220 10 -18
23 -19 230 -19 207 0 220 1 230 19 6 12 10 101 10 220 0 168 -2 202 -16 215
-13 14 -48 16 -224 16 -176 0 -211 -2 -224 -16z m278 -82 c3 -5 -40 -53 -95
-108 l-99 -99 0 101 c0 55 3 104 7 107 9 10 181 9 187 -1z m86 -182 l0 -100
-100 0 c-55 0 -100 3 -100 7 0 10 183 193 192 193 5 0 8 -45 8 -100z"/>
<path d="M1078 1484 c-9 -18 -9 -30 -1 -42 9 -16 60 -17 613 -17 554 0 604 1
613 17 8 12 7 24 -3 42 l-13 26 -599 0 -598 0 -12 -26z"/>
<path d="M1087 1302 c-23 -25 -21 -48 5 -66 20 -14 93 -16 598 -16 505 0 578
2 598 16 27 18 28 45 4 67 -17 15 -73 17 -604 17 -554 0 -586 -1 -601 -18z"/>
<path d="M1078 1104 c-9 -18 -9 -30 -1 -42 9 -15 36 -17 233 -17 198 0 224 2
233 17 8 12 7 24 -3 42 l-13 26 -219 0 -218 0 -12 -26z"/>
<path d="M510 821 c-6 -12 -10 -101 -10 -220 0 -168 2 -202 16 -215 23 -24
425 -24 448 0 14 13 16 47 16 215 0 119 -4 208 -10 220 -10 18 -23 19 -230 19
-207 0 -220 -1 -230 -19z m368 -213 l-3 -143 -135 0 -135 0 -3 143 -3 142 141
0 141 0 -3 -142z"/>
<path d="M1080 824 c-10 -11 -11 -23 -4 -42 l9 -27 264 -3 c277 -2 291 -1 291
42 0 44 -10 46 -286 46 -225 0 -263 -2 -274 -16z"/>
<path d="M1092 644 c-27 -18 -28 -45 -4 -67 16 -15 50 -17 273 -17 271 0 279
1 279 48 0 48 -16 51 -280 52 -206 0 -249 -2 -268 -16z"/>
<path d="M1080 444 c-10 -11 -11 -23 -4 -42 l9 -27 264 -3 c186 -2 268 1 277
9 19 16 18 65 -2 73 -9 3 -132 6 -274 6 -221 0 -259 -2 -270 -16z"/>
<path d="M2132 358 c-17 -17 -15 -65 4 -72 20 -8 228 -8 248 0 19 7 21 55 4
72 -17 17 -239 17 -256 0z"/>
</g>
</svg>
