<!-- icon666.com - MILLIONS vector ICONS FREE --><svg id="Lineal" enable-background="new 0 0 512 512" viewBox="0 0 512 512" xmlns="http://www.w3.org/2000/svg"><g><path d="m504.5 0h-198.5-100-198.5c-4.142 0-7.5 3.357-7.5 7.5v497c0 4.143 3.358 7.5 7.5 7.5h497c4.142 0 7.5-3.357 7.5-7.5v-497c0-4.143-3.358-7.5-7.5-7.5zm-206 15v133.5h-85v-133.5zm-200 333.5v-185h315v185zm398.5 148.5h-482v-482h183.5v133.5h-107.5c-4.142 0-7.5 3.357-7.5 7.5v200c0 4.143 3.358 7.5 7.5 7.5h107.5v52.5c0 4.143 3.358 7.5 7.5 7.5h15c4.142 0 7.5-3.357 7.5-7.5s-3.358-7.5-7.5-7.5h-7.5v-45h85v45h-2.5c-4.142 0-7.5 3.357-7.5 7.5s3.358 7.5 7.5 7.5h10c4.142 0 7.5-3.357 7.5-7.5v-52.5h107.5c4.142 0 7.5-3.357 7.5-7.5v-200c0-4.143-3.358-7.5-7.5-7.5h-107.5v-133.5h183.5z"></path><path d="m166 293.35h112.5c4.142 0 7.5-3.357 7.5-7.5s-3.358-7.5-7.5-7.5h-112.5c-4.142 0-7.5 3.357-7.5 7.5s3.358 7.5 7.5 7.5z"></path><path d="m346 308.35h-180c-4.142 0-7.5 3.357-7.5 7.5s3.358 7.5 7.5 7.5h180c4.142 0 7.5-3.357 7.5-7.5s-3.358-7.5-7.5-7.5z"></path><path d="m166 203.65h112.5c4.142 0 7.5-3.357 7.5-7.5s-3.358-7.5-7.5-7.5h-112.5c-4.142 0-7.5 3.357-7.5 7.5s3.358 7.5 7.5 7.5z"></path><path d="m346 218.65h-180c-4.142 0-7.5 3.357-7.5 7.5s3.358 7.5 7.5 7.5h180c4.142 0 7.5-3.357 7.5-7.5s-3.358-7.5-7.5-7.5z"></path><path d="m266 408.5h-15c-4.142 0-7.5 3.357-7.5 7.5s3.358 7.5 7.5 7.5h15c4.142 0 7.5-3.357 7.5-7.5s-3.358-7.5-7.5-7.5z"></path></g></svg>