<!-- icon666.com - MILLIONS vector ICONS FREE --><svg id="Capa_1" enable-background="new 0 0 512 512" viewBox="0 0 512 512" xmlns="http://www.w3.org/2000/svg"><g><path d="m197.989 428.423v-12.589c0-4.142-3.358-7.5-7.5-7.5s-7.5 3.358-7.5 7.5v12.589c0 4.142 3.358 7.5 7.5 7.5 4.142-.001 7.5-3.358 7.5-7.5z"></path><path d="m329.011 428.423v-12.589c0-4.142-3.358-7.5-7.5-7.5s-7.5 3.358-7.5 7.5v12.589c0 4.142 3.358 7.5 7.5 7.5s7.5-3.358 7.5-7.5z"></path><path d="m256 443.416c8.787 0 17.143-3.806 22.926-10.44 2.721-3.122 2.396-7.86-.727-10.582-3.123-2.721-7.861-2.396-10.582.727-2.933 3.366-7.167 5.296-11.617 5.296s-8.684-1.93-11.617-5.295c-2.721-3.123-7.459-3.448-10.581-.727-3.123 2.721-3.448 7.459-.727 10.581 5.782 6.634 14.138 10.44 22.925 10.44z"></path><path d="m88.674 504.314h57.609c4.142 0 7.5-3.358 7.5-7.5s-3.358-7.5-7.5-7.5h-57.609c-34.016 0-63.837-22.971-72.518-55.861-5.7-21.597 10.571-42.737 32.921-42.737h413.849c22.335 0 38.625 21.126 32.921 42.737-8.681 32.89-38.502 55.861-72.518 55.861h-247.047c-4.142 0-7.5 3.358-7.5 7.5s3.358 7.5 7.5 7.5h247.045c40.819 0 76.604-27.565 87.021-67.033 8.212-31.111-15.228-61.565-47.423-61.565h-3.991c55.878-50.526 51.522-115.502 51.821-116.824-.076-26.095-20.116-47.637-45.685-50.345l33.259-63.521c7.033-13.433 1.826-30.084-11.607-37.117-13.462-7.05-30.068-1.86-37.118 11.606l-46.464 88.739h-102.42c-.219-.954 3.449-41.528-33.923-70.433-11.432-8.842-17.989-21.915-17.989-35.866v-27.67c11.147-5.022 18.931-16.23 18.931-29.229 0-20.607-16.765-37.372-37.372-37.372h-33.863c-20.607 0-37.372 16.765-37.372 37.372 0 12.999 7.784 24.207 18.932 29.23v27.67c0 13.951-6.557 27.024-17.99 35.866-21.558 16.674-33.923 41.849-33.923 69.067v44.999c-12.321.339-24.165 3.207-35.242 8.538h-.001-.001c-29.97 14.434-49.334 45.238-49.334 78.475 0 13.836 5.39 26.845 15.176 36.633.062.062.127.119.19.181h-7.865c-32.177 0-55.64 30.436-47.423 61.565 10.419 39.47 46.203 67.034 87.023 67.034zm407.081-245.399c-.019.562.166 9.465-1.429 20.639h-55.77c-4.142 0-7.5 3.358-7.5 7.5s3.358 7.5 7.5 7.5h52.784c-8.387 32.639-28.568 61.761-56.444 81.163h-121.276c9.634-9.491 15.389-22.714 15.389-36.813 0-15.026-3.897-30.523-12.113-44.35h91.661c4.142 0 7.5-3.358 7.5-7.5s-3.358-7.5-7.5-7.5h-102.931c-7.041-7.633-15.967-14.323-25.951-19.126h-.001c-2.066-.723-15.94-8.573-37.714-8.573-10.323 0-17.86 0-28.64 0 3.503-16.493 18.192-28.599 35.35-28.599h210.955c19.865 0 36.072 16.007 36.13 35.659zm-239.075 56.779c-6.724 0-12.239-5.429-12.239-12.239v-36.531c8.534.282 16.584 1.956 24.479 5.154v31.377c0 6.748-5.49 12.239-12.24 12.239zm-59.148-48.839v36.599c0 6.701-5.406 12.239-12.24 12.239-6.788 0-12.239-5.533-12.239-12.239v-36.599zm265.361-140.381c3.203-6.119 10.751-8.48 16.871-5.275 6.106 3.197 8.472 10.765 5.276 16.871l-36.749 70.186h-28.219zm-266.387-103.789h33.863c12.336 0 22.372 10.036 22.372 22.372 0 9.574-7.851 17.048-17.048 17.048h-44.51c-9.332 0-17.048-7.6-17.048-17.048-.001-12.336 10.035-22.372 22.371-22.372zm-55.353 184.206c0-22.541 10.242-43.39 28.1-57.202 15.133-11.704 23.813-29.102 23.813-47.731v-24.853h40.744v24.852c0 18.63 8.679 36.027 23.812 47.731 30.317 23.448 27.97 58.001 28.1 58.568h-37.051c-25.398 0-46.923 18.737-50.59 43.599-11.604 0-45.324 0-56.928 0zm-15 96.564c0 6.69-5.412 12.239-12.25 12.239-6.749 0-12.24-5.491-12.24-12.239v-31.391c7.789-3.152 15.999-4.885 24.49-5.167zm-69.578 35.449c0-23.299 11.498-45.155 30.089-58.56v23.111c0 14.957 12.157 27.24 27.24 27.24 14.885 0 27.249-12.02 27.249-27.24v-36.599h16.9v36.599c0 14.957 12.158 27.24 27.24 27.24 15.055 0 27.239-12.18 27.239-27.24v-36.599h16.91v36.599c0 15.098 12.241 27.24 27.239 27.24 14.958 0 27.24-12.157 27.24-27.24v-23.125c3.04 2.182 6.149 4.791 8.986 7.628 13.521 13.523 21.102 31.953 21.102 50.945 0 20.296-16.512 36.809-36.809 36.809-3.695 0-181.229 0-183.816 0-20.34.001-36.809-16.468-36.809-36.808z"></path></g></svg>