<!-- icon666.com - MILLIONS vector ICONS FREE --><svg id="Capa_1" fill="#5a5c69" viewBox="0 0 512 512" xmlns="http://www.w3.org/2000/svg"><g><path d="m406 0h-300c-8.284 0-15 6.716-15 15v390c0 8.284 6.716 15 15 15h45v32h-15c-8.284 0-15 6.716-15 15s6.716 15 15 15h15v15c0 8.284 6.716 15 15 15s15-6.716 15-15v-15h150v15c0 8.284 6.716 15 15 15s15-6.716 15-15v-15h15c8.284 0 15-6.716 15-15s-6.716-15-15-15h-15v-32h45c8.284 0 15-6.716 15-15v-390c0-8.284-6.716-15-15-15zm-75 452h-150v-32h150zm60-62h-270v-360h270z"></path><path d="m265.535 180h-39.535c-8.284 0-15 6.716-15 15s6.716 15 15 15h15v15c0 8.284 6.716 15 15 15s15-6.716 15-15v-15.483c11.393-1.976 20.974-10.023 24.724-21.275 4.339-13.015-.12-27.29-11.096-35.521l-39.256-29.442c-.628-.472-.884-1.289-.635-2.034.248-.745.942-1.245 1.728-1.245h39.535c8.284 0 15-6.716 15-15s-6.716-15-15-15h-15v-15c0-8.284-6.716-15-15-15s-15 6.716-15 15v15.483c-11.392 1.976-20.973 10.023-24.724 21.275-4.339 13.014.12 27.289 11.095 35.521l39.257 29.442c.628.471.883 1.288.635 2.034-.248.745-.942 1.245-1.728 1.245z"></path><circle cx="166" cy="285" r="15"></circle><path d="m226 300h120c8.284 0 15-6.716 15-15s-6.716-15-15-15h-120c-8.284 0-15 6.716-15 15s6.716 15 15 15z"></path><circle cx="166" cy="345" r="15"></circle><path d="m226 360h120c8.284 0 15-6.716 15-15s-6.716-15-15-15h-120c-8.284 0-15 6.716-15 15s6.716 15 15 15z"></path></g></svg>