<!-- icon666.com - MILLIONS vector ICONS FREE --><svg version="1.1" id="Capa_1" xmlns="http://www.w3.org/2000/svg" xmlns:xlink="http://www.w3.org/1999/xlink" x="0px" y="0px" viewBox="0 0 453.482 453.482" style="enable-background:new 0 0 453.482 453.482;" xml:space="preserve"><g><path style="fill:#010002;" d="M382.342,150.455H328.64V88.519c0-0.125-0.066-0.239-0.072-0.364 c-0.036-0.531-0.137-1.044-0.31-1.545c-0.066-0.191-0.113-0.37-0.197-0.555c-0.292-0.632-0.656-1.235-1.17-1.748L244.34,1.748 c-0.513-0.513-1.11-0.877-1.742-1.164c-0.185-0.084-0.376-0.137-0.573-0.203c-0.495-0.167-1.002-0.269-1.522-0.304 C240.372,0.072,240.253,0,240.122,0H122.789c-3.294,0-5.967,2.673-5.967,5.967v144.488H71.134c-3.294,0-5.967,2.673-5.967,5.967 v200.302c0,3.3,2.673,5.967,5.967,5.967h45.688v84.825c0,3.3,2.673,5.967,5.967,5.967h199.89c3.3,0,5.967-2.667,5.967-5.967V362.69 h53.702c3.3,0,5.967-2.667,5.967-5.967V156.421C388.309,153.128,385.642,150.455,382.342,150.455z M308.269,82.552h-62.181V20.371 l31.087,31.093L308.269,82.552z M128.756,11.934h105.405v76.585c0,3.294,2.667,5.967,5.967,5.967h76.585v55.969H128.756 C128.756,150.455,128.756,11.934,128.756,11.934z M316.707,441.548H128.75v-84.825v-85.231h187.956v85.231V441.548z"></path></g></svg>