<!-- icon666.com - MILLIONS vector ICONS FREE --><svg version="1.1" id="Layer_1" xmlns="http://www.w3.org/2000/svg" xmlns:xlink="http://www.w3.org/1999/xlink" x="0px" y="0px" viewBox="0 0 512 512" style="enable-background:new 0 0 512 512;" xml:space="preserve"><g><g><g><rect x="277.325" y="42.844" width="21.315" height="21.315"></rect><rect x="256" y="64.154" width="21.317" height="21.32"></rect><polygon points="234.691,85.473 255.992,85.473 255.992,64.154 234.691,64.154 234.691,42.844 213.376,42.844 213.376,64.154 213.376,64.159 213.376,85.473 234.675,85.473 "></polygon><polygon points="256,106.79 256,106.793 256,128.108 277.317,128.108 277.317,106.793 277.317,106.79 277.317,85.478 256,85.478 "></polygon><polygon points="234.675,149.417 255.992,149.417 255.992,128.108 255.992,128.102 255.992,106.79 234.691,106.79 234.691,85.478 213.376,85.478 213.376,106.79 213.376,106.793 213.376,128.108 234.675,128.108 "></polygon><rect x="277.325" y="128.102" width="21.315" height="21.315"></rect><rect x="277.325" y="170.726" width="21.315" height="21.32"></rect><rect x="213.376" y="149.427" width="21.315" height="21.315"></rect><rect x="256" y="149.427" width="21.317" height="21.315"></rect><rect x="213.376" y="192.051" width="21.315" height="21.315"></rect><rect x="64.154" y="213.376" width="21.315" height="21.317"></rect><polygon points="192.051,234.675 192.051,234.693 192.051,255.99 213.366,255.99 213.366,234.693 213.366,234.675 213.366,213.376 192.051,213.376 "></polygon><polygon points="275.19,234.693 275.19,213.376 253.875,213.376 253.875,234.675 234.691,234.675 234.691,213.376 213.376,213.376 213.376,234.693 234.675,234.693 234.675,255.99 255.992,255.99 255.992,234.693 "></polygon><polygon points="319.949,234.675 319.949,234.693 319.949,255.99 341.263,255.99 341.263,234.693 341.263,234.675 341.263,213.376 319.949,213.376 "></polygon><polygon points="405.212,213.376 383.898,213.376 383.898,234.675 383.898,234.693 383.898,255.99 405.197,255.99 405.212,255.99 426.509,255.99 426.509,234.675 405.212,234.675 "></polygon><polygon points="149.419,255.99 149.419,234.675 128.105,234.675 128.105,213.376 106.793,213.376 106.79,213.376 85.478,213.376 85.478,234.693 106.79,234.693 106.79,255.99 128.102,255.99 128.105,255.99 "></polygon><polygon points="170.726,234.675 149.427,234.675 149.427,255.99 170.726,255.99 170.744,255.99 192.041,255.99 192.041,234.675 170.744,234.675 "></polygon><rect x="192.051" y="256" width="21.315" height="21.315"></rect><rect x="362.573" y="234.675" width="21.317" height="21.315"></rect><polygon points="447.836,234.693 447.836,234.675 447.836,213.376 426.522,213.376 426.522,234.675 426.522,234.693 426.522,255.99 447.836,255.99 "></polygon><rect x="447.846" y="234.675" width="21.317" height="21.315"></rect><polygon points="85.468,256 64.164,256 64.154,256 42.844,256 42.844,277.315 64.154,277.315 64.164,277.315 85.468,277.315 "></polygon><rect x="106.79" y="256" width="21.315" height="21.315"></rect><rect x="170.726" y="256" width="21.315" height="21.315"></rect><rect x="234.675" y="256" width="21.317" height="21.315"></rect><rect x="319.949" y="256" width="21.315" height="21.315"></rect><polygon points="298.624,256 277.325,256 277.325,277.315 298.624,277.315 298.639,277.315 319.936,277.315 319.936,256 298.639,256 "></polygon><rect x="298.624" y="234.675" width="21.312" height="21.315"></rect><rect x="405.197" y="256" width="21.312" height="21.315"></rect><rect x="64.154" y="277.325" width="21.315" height="21.317"></rect><rect x="106.79" y="277.325" width="21.315" height="21.317"></rect><rect x="149.427" y="277.325" width="21.317" height="21.317"></rect><rect x="298.624" y="277.325" width="21.312" height="21.317"></rect><rect x="319.949" y="277.325" width="21.315" height="21.317"></rect><polygon points="362.591,277.325 341.274,277.325 341.274,298.624 341.274,298.642 341.274,319.936 362.573,319.936 362.591,319.936 383.89,319.936 383.89,298.624 362.591,298.624 "></polygon><polygon points="405.197,277.325 383.898,277.325 383.898,298.624 383.898,298.642 383.898,319.936 405.197,319.936 405.212,319.936 426.509,319.936 426.509,298.642 426.509,298.624 426.509,277.325 405.212,277.325 "></polygon><rect x="234.675" y="298.624" width="21.317" height="21.312"></rect><rect x="426.522" y="298.624" width="21.315" height="21.312"></rect><polygon points="234.675,319.949 213.376,319.949 213.376,341.266 234.675,341.266 234.691,341.266 255.992,341.266 255.992,319.949 234.691,319.949 "></polygon><rect x="319.949" y="319.949" width="21.315" height="21.317"></rect><rect x="341.274" y="319.949" width="21.317" height="21.317"></rect><rect x="405.197" y="319.949" width="21.312" height="21.317"></rect><rect x="447.846" y="319.949" width="21.317" height="21.317"></rect><rect x="256" y="341.274" width="21.317" height="21.315"></rect><rect x="277.325" y="319.949" width="21.315" height="21.317"></rect><polygon points="362.573,341.274 341.274,341.274 341.274,362.588 362.573,362.588 362.573,383.885 383.89,383.885 383.89,362.588 383.89,362.573 383.89,341.274 362.591,341.274 "></polygon><polygon points="405.197,341.274 383.898,341.274 383.898,362.573 383.898,362.588 383.898,383.885 405.212,383.885 405.212,362.588 426.509,362.588 426.509,341.274 405.212,341.274 "></polygon><rect x="426.522" y="341.274" width="21.315" height="21.315"></rect><rect x="447.846" y="362.573" width="21.317" height="21.312"></rect><polygon points="234.675,341.274 213.376,341.274 213.376,362.573 213.376,362.588 213.376,383.885 234.691,383.885 234.691,362.588 255.992,362.588 255.992,341.274 234.691,341.274 "></polygon><rect x="319.949" y="362.573" width="21.315" height="21.312"></rect><polygon points="234.675,405.197 213.376,405.197 213.376,426.509 234.691,426.509 234.691,405.217 255.992,405.217 255.992,383.898 234.675,383.898 "></polygon><polygon points="256,405.197 256,405.217 256,426.509 277.317,426.509 277.317,405.217 277.317,405.197 277.317,383.898 256,383.898 "></polygon><polygon points="362.573,405.197 341.274,405.197 341.274,426.509 362.573,426.509 362.591,426.509 383.89,426.509 383.89,405.217 383.89,405.197 383.89,383.898 362.573,383.898 "></polygon><rect x="277.325" y="405.197" width="21.315" height="21.312"></rect><rect x="383.898" y="405.197" width="21.315" height="21.312"></rect><rect x="426.522" y="405.197" width="21.315" height="21.312"></rect><rect x="234.675" y="426.522" width="21.317" height="21.317"></rect><rect x="256" y="426.522" width="21.317" height="21.317"></rect><rect x="298.624" y="426.522" width="21.312" height="21.317"></rect><rect x="319.949" y="426.522" width="21.315" height="21.317"></rect><rect x="341.274" y="426.522" width="21.317" height="21.317"></rect><polygon points="405.197,426.522 383.898,426.522 383.898,447.839 405.197,447.839 405.212,447.839 426.509,447.839 426.509,426.522 405.212,426.522 "></polygon><rect x="426.522" y="426.522" width="21.315" height="21.317"></rect><rect x="447.846" y="426.522" width="21.317" height="21.317"></rect><rect x="256" y="447.846" width="21.317" height="21.315"></rect><rect x="298.624" y="447.846" width="21.312" height="21.315"></rect><polygon points="362.573,447.846 341.274,447.846 341.274,469.161 362.573,469.161 362.591,469.161 383.89,469.161 383.89,447.846 362.591,447.846 "></polygon><rect x="383.898" y="447.846" width="21.315" height="21.315"></rect><rect x="426.522" y="447.846" width="21.315" height="21.315"></rect><rect x="447.846" y="447.846" width="21.317" height="21.315"></rect><path d="M190.661,42.844H42.844v147.817h147.817V42.844z M171.382,171.382H62.126V62.126h109.256V171.382z"></path><path d="M42.844,469.156h147.817V321.341H42.844V469.156z M62.126,340.618h109.256v109.256H62.126V340.618z"></path><path d="M469.156,42.844H321.341v147.817h147.814V42.844z M449.876,171.382H340.621V62.126h109.256V171.382z"></path><rect x="373.837" y="95.334" width="42.844" height="42.847"></rect><rect x="95.334" y="95.334" width="42.847" height="42.847"></rect><rect x="95.334" y="373.837" width="42.847" height="42.844"></rect><polygon points="438.093,0 438.093,19.279 492.721,19.279 492.721,73.907 512,73.907 512,0 "></polygon><polygon points="19.279,19.279 73.907,19.279 73.907,0 0,0 0,73.907 19.279,73.907 "></polygon><polygon points="19.279,438.093 0,438.093 0,512 73.907,512 73.907,492.721 19.279,492.721 "></polygon><polygon points="492.721,492.721 438.093,492.721 438.093,512 512,512 512,438.093 492.721,438.093 "></polygon></g></g></g></svg>