<!-- icon666.com - MILLIONS vector ICONS FREE --><svg fill="#5a5c69" viewBox="0 0 64 64" xmlns="http://www.w3.org/2000/svg"><g id="outline"><path d="m12 15h-2v-5h5v2h-3z"></path><path d="m34 15h-2v-3h-3v-2h5z"></path><path d="m34 34h-5v-2h3v-3h2z"></path><path d="m15 34h-5v-5h2v3h3z"></path><path d="m23 23h2v2h-2z"></path><path d="m27 23h2v2h-2z"></path><path d="m23 27h2v2h-2z"></path><path d="m27 27h2v2h-2z"></path><path d="m25 25h2v2h-2z"></path><path d="m29 21h-6v-6h6zm-4-2h2v-2h-2z"></path><path d="m21 21h-6v-6h6zm-4-2h2v-2h-2z"></path><path d="m21 29h-6v-6h6zm-4-2h2v-2h-2z"></path><path d="m47 63a16 16 0 1 1 16-16 16.018 16.018 0 0 1 -16 16zm0-30a14 14 0 1 0 14 14 14.016 14.016 0 0 0 -14-14z" ></path><path d="m41 53h12v2h-12z"></path><path d="m47 52.414-5.707-5.707 1.414-1.414 4.293 4.293 4.293-4.293 1.414 1.414z"></path><path d="m46 40h2v11h-2z"></path><path d="m30 43h-29v-42h42v29h-2v-27h-38v38h27z"></path></g></svg>