<!-- icon666.com - MILLIONS vector ICONS FREE --><svg viewBox="0 0 64 64" xmlns="http://www.w3.org/2000/svg"><g id="outline" fill="rgb(0,0,0)"><path d="m20 47h2v2h-2z" fill="rgb(0,0,0)" style="fill: rgb(255, 255, 255);"></path><path d="m24 47h2v2h-2z" fill="rgb(0,0,0)" style="fill: rgb(255, 255, 255);"></path><path d="m20 51h2v2h-2z" fill="rgb(0,0,0)" style="fill: rgb(255, 255, 255);"></path><path d="m24 51h2v2h-2z" fill="rgb(0,0,0)" style="fill: rgb(255, 255, 255);"></path><path d="m22 49h2v2h-2z" fill="rgb(0,0,0)" style="fill: rgb(255, 255, 255);"></path><path d="m26 45h-6v-6h6zm-4-2h2v-2h-2z" fill="rgb(0,0,0)" style="fill: rgb(255, 255, 255);"></path><path d="m18 45h-6v-6h6zm-4-2h2v-2h-2z" fill="rgb(0,0,0)" style="fill: rgb(255, 255, 255);"></path><path d="m18 53h-6v-6h6zm-4-2h2v-2h-2z" fill="rgb(0,0,0)" style="fill: rgb(255, 255, 255);"></path><path d="m51.323 63h-46.344a3.994 3.994 0 0 1 -3.979-4v-26a3.994 3.994 0 0 1 3.979-4h46.344a4.973 4.973 0 0 1 4.335 2.551l6.7 12a5.054 5.054 0 0 1 0 4.9l-6.7 12a4.973 4.973 0 0 1 -4.335 2.549zm-46.344-32a1.992 1.992 0 0 0 -1.979 2v26a1.992 1.992 0 0 0 1.979 2h46.344a2.971 2.971 0 0 0 2.589-1.527l6.7-12a3.039 3.039 0 0 0 0-2.946l-6.7-12a2.971 2.971 0 0 0 -2.589-1.527z" fill="rgb(0,0,0)" style="fill: rgb(255, 255, 255);"></path><path d="m48 51a5 5 0 1 1 5-5 5.006 5.006 0 0 1 -5 5zm0-8a3 3 0 1 0 3 3 3 3 0 0 0 -3-3z" fill="rgb(0,0,0)" style="fill: rgb(255, 255, 255);"></path><path d="m30 57h-22v-22h22zm-20-2h18v-18h-18z" fill="rgb(0,0,0)" style="fill: rgb(255, 255, 255);"></path><path d="m35 27h-2v-14.538a2.053 2.053 0 0 0 -1.025-1.784l-13-7.418a1.973 1.973 0 0 0 -1.95 0l-13 7.418a2.053 2.053 0 0 0 -1.025 1.784v14.538h-2v-14.538a4.057 4.057 0 0 1 2.034-3.522l13-7.418a3.987 3.987 0 0 1 3.933 0l13 7.418a4.057 4.057 0 0 1 2.033 3.522z" fill="rgb(0,0,0)" style="fill: rgb(255, 255, 255);"></path><path d="m18 21a5 5 0 1 1 5-5 5.006 5.006 0 0 1 -5 5zm0-8a3 3 0 1 0 3 3 3 3 0 0 0 -3-3z" fill="rgb(0,0,0)" style="fill: rgb(255, 255, 255);"></path></g></svg>