<!-- icon666.com - MILLIONS vector ICONS FREE --><svg version="1.1" fill="#5a5c69" id="Capa_1" xmlns="http://www.w3.org/2000/svg" xmlns:xlink="http://www.w3.org/1999/xlink" x="0px" y="0px" viewBox="0 0 512 512" xml:space="preserve"><g><g><path d="M375,30H111.928C101.537,12.084,82.159,0,60,0C26.917,0,0,26.916,0,60v392c0,33.084,26.916,60,60,60h255 c8.284,0,15-6.716,15-15v-45h45c8.284,0,15-6.716,15-15V45C390,36.716,383.284,30,375,30z M30,60c0-16.542,13.458-30,30-30 s30,13.458,30,30v340.06C81.07,394.898,70.774,392,60,392c-10.925,0-21.167,2.949-30,8.072V60z M300,482H60 c-16.542,0-30-13.458-30-30s13.458-30,30-30c12.697,0,24.069,8.037,28.297,19.999C90.415,447.993,96.083,452,102.44,452H300V482z M360,422H120V60h240V422z"></path></g></g><g><g><path d="M467,30c-24.813,0-45,20.187-45,45c0,9.872,0,290.158,0,302c0,0.066,0.009,0.129,0.01,0.195 c0.003,0.266,0.023,0.53,0.04,0.795c0.242,3.68-0.36,0.513,30.719,93.752C454.813,477.869,460.544,482,467,482 s12.188-4.131,14.23-10.257c30.753-92.26,30.325-90.048,30.665-93.033c0.027-0.237,0.039-0.479,0.054-0.719 c0.018-0.266,0.037-0.53,0.04-0.796c0.001-0.066,0.01-0.129,0.01-0.195c0-11.426,0-292.089,0-302C512,50.187,491.813,30,467,30z M467,419.566l-13.458-40.373c3.421-3.657,8.175-5.734,13.457-5.734c5.283,0,10.037,2.077,13.459,5.734L467,419.566z M482,165 v180.802c-4.757-1.532-9.805-2.343-15.001-2.343c-5.195,0-10.242,0.811-14.999,2.343V165v-25.924c7.283-10.176,22.713-10.18,30,0 V165z M482,103.802c-9.498-3.058-20.091-3.191-30,0V75c0-8.271,6.729-15,15-15s15,6.729,15,15V103.802z"></path></g></g><g><g><path d="M292.073,120.555C281.586,101.922,261.813,90,240,90s-41.586,11.922-52.073,30.555C166.463,123.959,150,142.593,150,165 c0,20.613,13.932,38.034,32.873,43.34l12.575,50.298C197.117,265.315,203.117,270,210,270h60c6.883,0,12.883-4.685,14.552-11.362 l12.575-50.298C316.068,203.034,330,185.613,330,165C330,142.593,313.539,123.959,292.073,120.555z M285.001,180 c-6.883,0-12.883,4.685-14.552,11.362L258.289,240h-36.576l-12.16-48.638C207.883,184.685,201.883,180,195,180 c-8.271,0-15-6.729-15-15c0-7.833,6.035-14.284,13.7-14.944c0.704,0.161,1.573,0.321,2.555,0.408 c6.883,0.617,13.297-3.55,15.532-10.089C215.953,128.188,227.29,120,240,120s24.048,8.188,28.213,20.375 c2.235,6.541,8.66,10.707,15.534,10.089c0.979-0.088,1.849-0.248,2.553-0.408c7.665,0.661,13.7,7.111,13.7,14.944 C300.001,173.271,293.272,180,285.001,180z"></path></g></g><g><g><path d="M315,302H165c-8.284,0-15,6.716-15,15s6.716,15,15,15h150c8.284,0,15-6.716,15-15S323.284,302,315,302z"></path></g></g><g><g><path d="M315,362H165c-8.284,0-15,6.716-15,15s6.716,15,15,15h150c8.284,0,15-6.716,15-15S323.284,362,315,362z"></path></g></g></svg>