<!-- icon666.com - MILLIONS vector ICONS FREE --><svg id="Capa_1" enable-background="new 0 0 511.994 511.994" viewBox="0 0 511.994 511.994" xmlns="http://www.w3.org/2000/svg"><g><path d="m299.285 322.907c4.03-.956 6.522-4.998 5.565-9.028-4.457-18.78-11.425-36.418-20.152-51.006-2.125-3.553-6.731-4.71-10.286-2.586-3.555 2.127-4.712 6.732-2.586 10.287 7.949 13.288 14.322 29.461 18.43 46.768.957 4.031 5.003 6.524 9.029 5.565z" fill="#000000" style="fill: rgb(255, 255, 255);"></path><path d="m200.609 370.413c-.885-4.047-4.883-6.614-8.929-5.726-4.047.885-6.61 4.882-5.726 8.929 4.211 19.266 15.792 30.272 24.766 36.113 3.459 2.252 8.11 1.288 10.377-2.194 2.26-3.472 1.277-8.118-2.194-10.378-9.63-6.268-15.785-15.266-18.294-26.744z" fill="#000000" style="fill: rgb(255, 255, 255);"></path><path d="m202.4 284.896c-7.077 13.2-12.614 29.656-15.589 46.335-.728 4.078 1.988 7.974 6.066 8.701 4.087.725 7.974-1.995 8.701-6.066 2.706-15.164 7.692-30.038 14.042-41.882 1.957-3.65.584-8.196-3.066-10.154-3.651-1.956-8.196-.584-10.154 3.066z" fill="#000000" style="fill: rgb(255, 255, 255);"></path><path d="m248.093 281.829c-3.65 1.958-5.023 6.504-3.066 10.154 10.045 18.736 16.286 44.016 16.286 65.974 0 21.849-10.623 33.364-19.534 39.177-3.469 2.264-4.447 6.91-2.184 10.38 2.263 3.469 6.909 4.448 10.379 2.184 12.016-7.837 26.339-23.176 26.339-51.74 0-24.282-6.922-52.277-18.066-73.062-1.958-3.65-6.503-5.022-10.154-3.067z" fill="#000000" style="fill: rgb(255, 255, 255);"></path><path d="m243.908 232.675-2.508 1.255c-6.936 3.466-15.218 3.465-22.152.001l-2.508-1.255c-3.703-1.854-8.209-.353-10.063 3.352-1.853 3.704-.353 8.21 3.352 10.062l2.51 1.256c11.134 5.567 24.433 5.569 35.57 0l2.509-1.255c3.705-1.854 5.206-6.358 3.353-10.063-1.853-3.703-6.36-5.204-10.063-3.353z" fill="#000000" style="fill: rgb(255, 255, 255);"></path><path d="m500.618 231.873c-1.539-3.847-5.905-5.72-9.75-4.177-3.846 1.539-5.715 5.903-4.177 9.749 6.837 17.085 10.303 35.164 10.303 53.736 0 79.797-64.919 144.717-144.716 144.717-3.226 0-6.449-.107-9.662-.319 5.331-4.032 10.618-8.999 15.541-15.015 11.526-14.083 24.295-38.247 19.669-73.386-4.822-36.627-22.529-75.695-45.111-99.533-12.146-12.82-27.555-21.951-44.56-26.404-14.222-3.724-25.694-14.808-29.94-28.926l-.456-1.517c-.74-2.46-1.413-4.937-2.019-7.428 1.026-.919 2.066-1.825 3.117-2.714 9.636 4.812 20.272 7.328 31.153 7.328 10.646 0 20.99-2.387 30.414-6.966 4.776 14.872 14.513 27.908 27.683 36.723 2.522 1.688 5.818 1.69 8.343 0 13.17-8.814 22.906-21.851 27.683-36.723 9.423 4.579 19.768 6.966 30.414 6.966 10.868 0 21.49-2.51 31.149-7.331 9.459 8.001 17.851 17.168 24.991 27.307 2.377 3.376 7.054 4.207 10.45 1.813 3.387-2.385 4.199-7.063 1.814-10.45-7.235-10.274-15.636-19.644-25.042-27.942 1.118-3.031.168-6.426-2.337-8.44-.743-.597-1.496-1.193-2.25-1.778-19.36-15.08-42.197-25.787-66.042-30.965-7.917-1.72-13.663-8.957-13.663-17.21v-43.21c0-4.143-3.358-7.5-7.5-7.5h-27.676c-4.142 0-7.5 3.357-7.5 7.5v43.214c0 8.251-5.745 15.487-13.661 17.206-23.499 5.103-46.018 15.575-65.186 30.302-.288-3.705-.432-7.424-.432-11.151v-11.601c0-4.143-3.358-7.5-7.5-7.5h-27.676c-4.142 0-7.5 3.357-7.5 7.5v11.601c0 14.051-2.052 27.996-6.099 41.45l-.456 1.517c-4.163 13.842-15.272 24.766-29.107 28.698-.625-2.643-1.293-5.294-2-7.936-8.979-33.507-23.69-63.756-43.726-89.905-2.52-3.288-7.227-3.911-10.515-1.392s-3.911 7.227-1.392 10.515c18.834 24.581 32.676 53.066 41.144 84.665.795 2.967 1.537 5.947 2.22 8.911-11.678 5.042-22.268 12.426-31.123 21.774-5.727 6.045-11.14 13.071-16.109 20.788.782-3.925 2.089-7.759 3.912-11.397l8.548-17.061c6.598-13.169 8.133-28.256 4.321-42.482l-2.095-7.818c-1.072-4.001-5.188-6.381-9.186-5.303-4.001 1.071-6.375 5.185-5.304 9.186l2.095 7.818c2.861 10.676 1.709 21.998-3.243 31.881-.389.777-8.376 16.715-8.661 17.289l-7.311-27.286c-2.434-9.184-1.433-18.912 2.824-27.408l7.542-15.053c4.565-9.109 6.451-19.284 5.455-29.426-.404-4.123-4.074-7.141-8.197-6.73-4.123.404-7.136 4.074-6.731 8.197.719 7.319-.643 14.664-3.938 21.239l-6.602 13.177-9.685-36.144c-1.981-7.408-1.18-15.262 2.256-22.118l2.196-4.384c1.855-3.703.357-8.21-3.346-10.064-3.678-1.845-8.149-.377-10.027 3.272l-4.033-15.052c-1.072-4.001-5.186-6.379-9.186-5.303-4.001 1.071-6.375 5.185-5.304 9.186l12.466 46.523-7.593-5.004c-3.301-2.175-6.127-4.919-8.399-8.155-2.38-3.39-7.058-4.209-10.448-1.828-3.39 2.38-4.208 7.058-1.828 10.447 3.36 4.786 7.54 8.844 12.421 12.062l11.757 7.748c6.399 4.217 11.018 10.613 13.009 18.014.216.805 11.072 41.32 11.339 42.318l-12.307-8.11c-7.963-5.248-13.708-13.211-16.176-22.423l-1.849-6.898c-1.072-4-5.187-6.378-9.186-5.303-4.001 1.072-6.375 5.185-5.303 9.186l1.849 6.898c3.42 12.762 11.379 23.794 22.411 31.065l14.059 9.265c7.963 5.248 13.708 13.211 16.176 22.423.893 3.334 5.798 21.637 7.718 28.803-.322.721-.64 1.445-.954 2.171l-14.28-9.411c-9.229-6.082-15.888-15.312-18.748-25.988l-2.095-7.817c-1.072-4.001-5.184-6.38-9.186-5.303-4.001 1.072-6.375 5.185-5.303 9.186l2.095 7.817c3.812 14.227 12.685 26.525 24.983 34.631 17.394 11.463 16.235 10.691 16.969 11.204-4.214 12.167-7.281 24.726-8.898 37.01-.184 1.395-.341 2.784-.472 4.166-21.028-17.61-45.102-47.841-58.726-98.689-14.315-53.422-8.131-97.264-.422-124.636 8.417-29.886 20.243-47.189 24.566-51.662 5.725 1.654 23.594 10.158 44.92 30.348 3.008 2.848 7.755 2.718 10.603-.29s2.718-7.755-.29-10.603c-14.524-13.752-27.269-22.14-35.403-26.756-11.155-6.33-19.173-8.904-23.834-7.658-9.69 2.597-24.867 28.86-33.833 58.546-9.04 29.933-16.516 77.927-.797 136.591 16.663 62.189 48.326 95.963 73.083 113.668.885 10.374 3.392 20.272 7.509 29.598 1.673 3.789 6.102 5.503 9.89 3.832 3.79-1.673 5.505-6.101 3.833-9.891-6.169-13.973-7.798-29.099-5.756-44.608 1.686-12.807 5.064-25.917 9.732-38.44.134-.297.248-.6.341-.908 1.529-4.038 3.192-8.013 4.974-11.894.166-.302.311-.616.434-.938 7.011-15.04 15.826-28.627 25.647-38.994 10.219-10.787 23.176-18.467 37.47-22.21 19.243-5.039 34.763-20.027 40.504-39.116.367-1.623 7.19-20.79 7.19-47.287v-4.101h12.676v4.101c0 15.172 2.168 30.592 6.734 45.771l.456 1.517c5.741 19.089 21.262 34.077 40.505 39.117 14.294 3.742 27.251 11.422 37.47 22.209 20.548 21.691 36.692 57.479 41.128 91.174 3.926 29.821-6.754 50.137-16.405 61.929-11.942 14.591-27.556 22.474-37.734 23.813-6.758.885-17.393-.251-29.076-5.46 19.506-17.588 30.45-42.932 30.45-71.46 0-5.754-.301-11.702-.895-17.681-.41-4.122-4.078-7.139-8.205-6.722-4.122.409-7.131 4.082-6.722 8.204.545 5.487.821 10.938.821 16.198 0 50.207-39.949 77.941-64.867 77.941-22.409 0-64.867-24.619-64.867-77.941 0-28.169 7.829-59.255 20.941-83.154 1.993-3.631.664-8.19-2.967-10.183-3.633-1.992-8.191-.665-10.183 2.968-14.271 26.01-22.791 59.792-22.791 90.369 0 28.534 10.943 53.876 30.451 71.461-11.682 5.211-22.316 6.348-29.077 5.46-9.252-1.219-20.373-6.989-29.748-15.438-3.078-2.772-7.82-2.526-10.592.551-2.773 3.077-2.526 7.819.55 10.592 11.544 10.403 25.687 17.568 37.832 19.167 13.277 1.744 29.729-2.09 44.465-10.302 11.917 7.299 24.909 11.451 35.986 11.451s24.067-4.151 35.986-11.451c14.736 8.211 31.19 12.05 44.465 10.302 2.788-.367 5.882-1.063 9.179-2.126 10.58 2.174 21.443 3.276 32.325 3.276 88.067 0 159.716-71.648 159.716-159.717.002-20.493-3.825-40.447-11.374-59.312zm-180.155-87.017c14.763-3.205 25.478-16.605 25.478-31.864v-35.714h12.676v35.711c0 15.26 10.715 28.662 25.479 31.868 18.944 4.113 37.193 12.073 53.244 23.173-7.116 3.257-14.871 4.955-22.793 4.955-11.178 0-21.927-3.349-31.087-9.685-2.123-1.469-4.851-1.741-7.222-.726-2.372 1.017-4.054 3.182-4.454 5.73-2.086 13.294-9.101 25.39-19.504 33.883-10.404-8.493-17.418-20.589-19.505-33.883-.572-3.648-3.718-6.337-7.409-6.337-1.501 0-2.994.451-4.267 1.332-9.16 6.336-19.91 9.685-31.087 9.685-7.934 0-15.699-1.702-22.797-4.952 16.049-11.101 34.3-19.062 53.248-23.176z" fill="#000000" style="fill: rgb(255, 255, 255);"></path></g></svg>