 <svg  version="1.0" xmlns="http://www.w3.org/2000/svg" fill="#5a5c69" width="300.000000pt" height="237.000000pt" viewBox="0 0 300.000000 237.000000"  preserveAspectRatio="xMidYMid meet">  <g transform="translate(0.000000,237.000000) scale(0.100000,-0.100000)" stroke="none"> <path d="M379 2142 c-60 -31 -113 -93 -129 -150 -6 -24 -10 -263 -10 -667 0 -612 1 -631 21 -675 37 -83 110 -140 195 -154 l41 -7 5 -63 c24 -298 386 -430 599 -217 62 62 94 132 105 226 l7 55 323 0 324 0 0 -50 c0 -181 166 -337 355 -334 187 3 329 136 351 329 l7 55 118 0 c105 0 119 2 128 18 15 29 -6 42 -66 42 l-53 0 0 353 c0 193 -4 367 -9 385 -12 41 -387 432 -451 470 -41 25 -55 27 -181 30 l-137 4 -4 97 c-3 82 -8 103 -32 148 -30 54 -87 102 -145 121 -24 9 -215 12 -671 12 l-638 0 -53 -28z m1384 -60 c20 -13 50 -45 65 -70 l27 -47 0 -705 0 -705 -327 -3 -327 -2 -26 52 c-43 86 -89 134 -163 170 -61 30 -74 33 -162 33 -76 0 -104 -4 -142 -22 -67 -30 -139 -102 -173 -170 -16 -32 -30 -60 -31 -61 -7 -10 -113 31 -136 53 -66 61 -63 28 -66 708 -2 397 1 631 8 656 13 51 66 109 115 126 33 12 147 14 670 12 l630 -2 38 -23z m440 -373 c25 -13 407 -390 407 -401 0 -5 -155 -8 -345 -8 l-345 0 0 210 0 210 131 0 c75 0 140 -5 152 -11z m427 -814 l0 -345 -34 0 c-32 0 -37 4 -61 52 -43 85 -89 134 -160 169 -135 66 -292 46 -399 -52 l-56 -51 0 286 0 286 355 0 355 0 0 -345z m-1657 -174 c62 -30 115 -85 145 -149 34 -74 29 -186 -11 -255 -145 -246 -515 -168 -544 115 -9 87 17 160 81 223 93 93 220 119 329 66z m1359 1 c99 -43 168 -150 168 -259 0 -223 -218 -361 -416 -263 -97 48 -164 154 -164 261 0 83 58 188 133 241 70 50 192 59 279 20z"/> <path d="M1376 1900 c-51 -16 -103 -60 -132 -113 l-29 -52 0 -262 0 -263 33 -32 c31 -32 35 -33 127 -36 l95 -4 0 -123 c0 -73 4 -126 10 -130 6 -3 19 -3 30 0 20 6 20 16 20 496 0 476 -1 490 -20 509 -22 22 -80 26 -134 10z m94 -375 l0 -325 -75 0 c-67 0 -79 3 -100 25 -25 24 -25 24 -25 237 0 117 5 230 10 250 20 70 99 137 163 138 l27 0 0 -325z"/> <path d="M601 1862 c-5 -10 -13 -81 -17 -159 -7 -141 -7 -143 20 -197 32 -66 85 -113 143 -129 l43 -11 2 -206 3 -205 25 0 25 0 3 206 2 207 34 6 c49 9 110 58 143 113 28 47 28 50 26 200 -1 87 -7 161 -13 173 -12 23 -45 27 -53 6 -3 -8 -1 -76 5 -151 10 -134 10 -137 -14 -183 -70 -135 -247 -135 -316 0 -24 47 -24 49 -14 185 5 75 8 143 5 150 -7 19 -41 16 -52 -5z"/> <path d="M797 1874 c-4 -4 -7 -74 -7 -155 0 -153 4 -168 45 -153 13 5 15 30 13 158 -3 143 -4 151 -23 154 -12 2 -24 0 -28 -4z"/> </g> </svg> 