<!-- icon666.com - MILLIONS OF FREE VECTOR ICONS --><svg viewBox="-53 0 512 512" xmlns="http://www.w3.org/2000/svg"><path d="m391.933594 76.539062h-93.613282v-10.804687c0-8.285156-6.714843-15-15-15h-10.335937c-1.804687-28.304687-23.449219-50.734375-49.800781-50.734375h-39.4375c-26.347656 0-47.996094 22.429688-49.796875 50.734375h-10.339844c-8.285156 0-15 6.714844-15 15v10.804687h-93.609375c-8.285156 0-15 6.71875-15 15v405.460938c0 8.285156 6.714844 15 15 15h376.933594c8.28125 0 15-6.714844 15-15v-405.460938c0-8.285156-6.71875-15-15-15zm-77.203125 93.863282v251.007812h-222.527344v-251.007812zm-176.121094-89.667969h10.21875c8.285156 0 15-6.714844 15-15v-11.175781c0-13.542969 8.9375-24.558594 19.917969-24.558594h39.4375c10.984375 0 19.921875 11.015625 19.921875 24.558594v11.175781c0 8.285156 6.714843 15 15 15h10.214843v59.667969h-129.710937zm238.324219 401.265625h-346.933594v-375.460938h78.609375v33.863282h-31.40625c-8.285156 0-15 6.714844-15 15v281.007812c0 8.285156 6.714844 15 15 15h252.523437c8.285157 0 15-6.714844 15-15v-281.007812c0-8.285156-6.714843-15-15-15h-31.40625v-33.863282h78.609376v375.460938zm0 0" fill="#000000" style="fill: rgb(255, 255, 255);"></path><path d="m137.234375 380.933594h8.632813c8.28125 0 15-6.714844 15-15s-6.71875-15-15-15h-8.632813c-8.28125 0-15 6.714844-15 15s6.714844 15 15 15zm0 0" fill="#000000" style="fill: rgb(255, 255, 255);"></path><path d="m201.863281 380.933594h67.832031c8.285157 0 15-6.714844 15-15s-6.714843-15-15-15h-67.832031c-8.28125 0-15 6.714844-15 15s6.71875 15 15 15zm0 0" fill="#000000" style="fill: rgb(255, 255, 255);"></path><path d="m137.234375 310.90625h8.632813c8.28125 0 15-6.714844 15-15s-6.71875-15-15-15h-8.632813c-8.28125 0-15 6.714844-15 15s6.714844 15 15 15zm0 0" fill="#000000" style="fill: rgb(255, 255, 255);"></path><path d="m201.863281 310.90625h67.832031c8.285157 0 15-6.714844 15-15s-6.714843-15-15-15h-67.832031c-8.28125 0-15 6.714844-15 15s6.71875 15 15 15zm0 0" fill="#000000" style="fill: rgb(255, 255, 255);"></path><path d="m137.234375 240.878906h8.632813c8.28125 0 15-6.714844 15-15s-6.71875-15-15-15h-8.632813c-8.28125 0-15 6.714844-15 15s6.714844 15 15 15zm0 0" fill="#000000" style="fill: rgb(255, 255, 255);"></path><path d="m201.863281 240.878906h67.832031c8.285157 0 15-6.714844 15-15s-6.714843-15-15-15h-67.832031c-8.28125 0-15 6.714844-15 15s6.71875 15 15 15zm0 0" fill="#000000" style="fill: rgb(255, 255, 255);"></path><path d="m203.28125 74.695312h.371094c8.28125 0 15-6.714843 15-15 0-8.28125-6.71875-15-15-15h-.371094c-8.285156 0-15 6.71875-15 15 0 8.285157 6.714844 15 15 15zm0 0" fill="#000000" style="fill: rgb(255, 255, 255);"></path></svg>