<!-- icon666.com - MILLIONS vector ICONS FREE --><svg xmlns="http://www.w3.org/2000/svg" viewBox="0 0 64 64"><g id="_18-water" data-name="18-water"><path d="M63,58a8.44,8.44,0,0,0-5.78,2.21,6.69,6.69,0,0,1-9.11,0,8.66,8.66,0,0,0-11.56,0,6.69,6.69,0,0,1-9.11,0,8.66,8.66,0,0,0-11.56,0A6.52,6.52,0,0,1,11.33,62a6.52,6.52,0,0,1-4.55-1.79A8.46,8.46,0,0,0,1,58a1,1,0,0,0,0,2,6.52,6.52,0,0,1,4.55,1.79A8.44,8.44,0,0,0,11.33,64a8.46,8.46,0,0,0,5.78-2.21,6.68,6.68,0,0,1,9.1,0,8.66,8.66,0,0,0,11.56,0,6.69,6.69,0,0,1,9.11,0,8.66,8.66,0,0,0,11.56,0A6.54,6.54,0,0,1,63,60a1,1,0,0,0,0-2Z"></path><path d="M63,52a8.44,8.44,0,0,0-5.78,2.21,6.69,6.69,0,0,1-9.11,0,8.66,8.66,0,0,0-11.56,0,6.69,6.69,0,0,1-9.11,0,8.66,8.66,0,0,0-11.56,0A6.52,6.52,0,0,1,11.33,56a6.52,6.52,0,0,1-4.55-1.79A8.46,8.46,0,0,0,1,52a1,1,0,0,0,0,2,6.52,6.52,0,0,1,4.55,1.79A8.44,8.44,0,0,0,11.33,58a8.46,8.46,0,0,0,5.78-2.21,6.68,6.68,0,0,1,9.1,0,8.66,8.66,0,0,0,11.56,0,6.69,6.69,0,0,1,9.11,0,8.66,8.66,0,0,0,11.56,0A6.54,6.54,0,0,1,63,54a1,1,0,0,0,0-2Z"></path><path d="M1,48a6.52,6.52,0,0,1,4.55,1.79A8.44,8.44,0,0,0,11.33,52a8.46,8.46,0,0,0,5.78-2.21,6.68,6.68,0,0,1,9.1,0,8.66,8.66,0,0,0,11.56,0,6.69,6.69,0,0,1,9.11,0,8.66,8.66,0,0,0,11.56,0A6.54,6.54,0,0,1,63,48a1,1,0,0,0,0-2,8.44,8.44,0,0,0-5.78,2.21,6.69,6.69,0,0,1-9.11,0,8.66,8.66,0,0,0-11.56,0,6.69,6.69,0,0,1-9.11,0,8.66,8.66,0,0,0-11.56,0A6.52,6.52,0,0,1,11.33,50a6.52,6.52,0,0,1-4.55-1.79A8.46,8.46,0,0,0,1,46a1,1,0,0,0,0,2Z"></path><path d="M32.64,11.77A23.73,23.73,0,0,0,39,3.87a23.56,23.56,0,0,0,6.35,7.89A19.16,19.16,0,0,1,52,25,13,13,0,0,1,39,38a1,1,0,0,0,0,2A15,15,0,0,0,54,25a20.82,20.82,0,0,0-7.36-14.77C41,5.55,40,.85,40,.8A1,1,0,0,0,39,0h0a1,1,0,0,0-1,.8s-1,4.75-6.66,9.43a1,1,0,0,0,1.28,1.54Z"></path><path d="M25,44A15,15,0,0,0,40,29a20.82,20.82,0,0,0-7.36-14.77C27,9.55,26,4.85,26,4.8A1,1,0,0,0,25,4h0a1,1,0,0,0-1,.8s-1,4.75-6.67,9.44A20.8,20.8,0,0,0,10,29,15,15,0,0,0,25,44ZM18.64,15.77A23.81,23.81,0,0,0,25,7.88a23.64,23.64,0,0,0,6.35,7.88A19.18,19.18,0,0,1,38,29a13,13,0,0,1-26,0A19.16,19.16,0,0,1,18.64,15.77Z"></path><path d="M29,39a.93.93,0,0,0,.45-.11,14.91,14.91,0,0,0,6.48-7.52,1,1,0,0,0-1.86-.74,13.1,13.1,0,0,1-5.52,6.48,1,1,0,0,0-.44,1.34A1,1,0,0,0,29,39Z"></path><rect x="34" y="27" width="2" height="2"></rect></g></svg>